<mxfile host="app.diagrams.net" modified="2023-11-25T16:56:19.826Z" agent="Mozilla/5.0 (Windows NT 10.0; Win64; x64) AppleWebKit/537.36 (KHTML, like Gecko) Chrome/118.0.0.0 Safari/537.36 OPR/104.0.0.0" etag="SVEblOZjoq25XppHbS6M" version="22.1.4" type="device">
  <diagram name="Страница — 1" id="Fdg83oSXZRH2WpY5YwqQ">
    <mxGraphModel dx="1381" dy="760" grid="1" gridSize="10" guides="1" tooltips="1" connect="1" arrows="1" fold="1" page="1" pageScale="1" pageWidth="827" pageHeight="1169" math="0" shadow="0">
      <root>
        <mxCell id="0" />
        <mxCell id="1" parent="0" />
        <mxCell id="2q1M_JXiHJTiU6n72Lel-1" value="" style="rounded=0;whiteSpace=wrap;html=1;" parent="1" vertex="1">
          <mxGeometry x="160" y="170" width="480" height="600" as="geometry" />
        </mxCell>
        <mxCell id="2q1M_JXiHJTiU6n72Lel-3" value="Споживач" style="shape=umlActor;verticalLabelPosition=bottom;verticalAlign=top;html=1;outlineConnect=0;" parent="1" vertex="1">
          <mxGeometry x="20" y="350" width="30" height="60" as="geometry" />
        </mxCell>
        <mxCell id="2q1M_JXiHJTiU6n72Lel-8" value="Тренер" style="shape=umlActor;verticalLabelPosition=bottom;verticalAlign=top;html=1;outlineConnect=0;" parent="1" vertex="1">
          <mxGeometry x="350" y="790" width="30" height="60" as="geometry" />
        </mxCell>
        <mxCell id="2q1M_JXiHJTiU6n72Lel-9" value="Перегляд даних про якість сну" style="ellipse;whiteSpace=wrap;html=1;" parent="1" vertex="1">
          <mxGeometry x="200" y="210" width="160" height="60" as="geometry" />
        </mxCell>
        <mxCell id="2q1M_JXiHJTiU6n72Lel-11" value="Перегляд статистики своїх снів" style="ellipse;whiteSpace=wrap;html=1;" parent="1" vertex="1">
          <mxGeometry x="210" y="360" width="140" height="60" as="geometry" />
        </mxCell>
        <mxCell id="2q1M_JXiHJTiU6n72Lel-12" value="Запис даних про сон" style="ellipse;whiteSpace=wrap;html=1;" parent="1" vertex="1">
          <mxGeometry x="210" y="280" width="140" height="60" as="geometry" />
        </mxCell>
        <mxCell id="2q1M_JXiHJTiU6n72Lel-14" value="Перегляд порад щодо якості сну" style="ellipse;whiteSpace=wrap;html=1;" parent="1" vertex="1">
          <mxGeometry x="210" y="430" width="140" height="60" as="geometry" />
        </mxCell>
        <mxCell id="2q1M_JXiHJTiU6n72Lel-16" value="Перегляд танців та інформації про них" style="ellipse;whiteSpace=wrap;html=1;" parent="1" vertex="1">
          <mxGeometry x="200" y="585" width="160" height="60" as="geometry" />
        </mxCell>
        <mxCell id="2q1M_JXiHJTiU6n72Lel-22" value="Публікація танців та інформацією про них" style="ellipse;whiteSpace=wrap;html=1;" parent="1" vertex="1">
          <mxGeometry x="285" y="680" width="160" height="60" as="geometry" />
        </mxCell>
        <mxCell id="2q1M_JXiHJTiU6n72Lel-24" value="" style="endArrow=classic;html=1;rounded=0;exitX=1;exitY=0.3333333333333333;exitDx=0;exitDy=0;exitPerimeter=0;entryX=0;entryY=0.5;entryDx=0;entryDy=0;" parent="1" source="2q1M_JXiHJTiU6n72Lel-3" target="2q1M_JXiHJTiU6n72Lel-9" edge="1">
          <mxGeometry width="50" height="50" relative="1" as="geometry">
            <mxPoint x="320" y="570" as="sourcePoint" />
            <mxPoint x="370" y="520" as="targetPoint" />
          </mxGeometry>
        </mxCell>
        <mxCell id="2q1M_JXiHJTiU6n72Lel-25" value="" style="endArrow=classic;html=1;rounded=0;exitX=1;exitY=0.3333333333333333;exitDx=0;exitDy=0;exitPerimeter=0;entryX=0;entryY=0.5;entryDx=0;entryDy=0;" parent="1" source="2q1M_JXiHJTiU6n72Lel-3" target="2q1M_JXiHJTiU6n72Lel-12" edge="1">
          <mxGeometry width="50" height="50" relative="1" as="geometry">
            <mxPoint x="320" y="570" as="sourcePoint" />
            <mxPoint x="370" y="520" as="targetPoint" />
          </mxGeometry>
        </mxCell>
        <mxCell id="2q1M_JXiHJTiU6n72Lel-26" value="" style="endArrow=classic;html=1;rounded=0;exitX=1;exitY=0.3333333333333333;exitDx=0;exitDy=0;exitPerimeter=0;entryX=0;entryY=0.5;entryDx=0;entryDy=0;" parent="1" source="2q1M_JXiHJTiU6n72Lel-3" target="2q1M_JXiHJTiU6n72Lel-11" edge="1">
          <mxGeometry width="50" height="50" relative="1" as="geometry">
            <mxPoint x="320" y="570" as="sourcePoint" />
            <mxPoint x="370" y="520" as="targetPoint" />
          </mxGeometry>
        </mxCell>
        <mxCell id="2q1M_JXiHJTiU6n72Lel-27" value="" style="endArrow=classic;html=1;rounded=0;exitX=1;exitY=0.3333333333333333;exitDx=0;exitDy=0;exitPerimeter=0;entryX=0;entryY=0.5;entryDx=0;entryDy=0;" parent="1" source="2q1M_JXiHJTiU6n72Lel-3" target="2q1M_JXiHJTiU6n72Lel-14" edge="1">
          <mxGeometry width="50" height="50" relative="1" as="geometry">
            <mxPoint x="320" y="570" as="sourcePoint" />
            <mxPoint x="370" y="520" as="targetPoint" />
          </mxGeometry>
        </mxCell>
        <mxCell id="2q1M_JXiHJTiU6n72Lel-30" value="" style="endArrow=classic;html=1;rounded=0;exitX=1;exitY=0.3333333333333333;exitDx=0;exitDy=0;exitPerimeter=0;entryX=0;entryY=0.5;entryDx=0;entryDy=0;" parent="1" source="2q1M_JXiHJTiU6n72Lel-3" target="2q1M_JXiHJTiU6n72Lel-16" edge="1">
          <mxGeometry width="50" height="50" relative="1" as="geometry">
            <mxPoint x="320" y="570" as="sourcePoint" />
            <mxPoint x="370" y="520" as="targetPoint" />
            <Array as="points">
              <mxPoint x="150" y="540" />
            </Array>
          </mxGeometry>
        </mxCell>
        <mxCell id="2q1M_JXiHJTiU6n72Lel-35" value="" style="endArrow=classic;html=1;rounded=0;exitX=0.5;exitY=0;exitDx=0;exitDy=0;exitPerimeter=0;entryX=0.5;entryY=1;entryDx=0;entryDy=0;" parent="1" source="2q1M_JXiHJTiU6n72Lel-8" target="2q1M_JXiHJTiU6n72Lel-22" edge="1">
          <mxGeometry width="50" height="50" relative="1" as="geometry">
            <mxPoint x="270" y="540" as="sourcePoint" />
            <mxPoint x="320" y="490" as="targetPoint" />
          </mxGeometry>
        </mxCell>
        <mxCell id="2q1M_JXiHJTiU6n72Lel-38" value="" style="endArrow=classic;html=1;rounded=0;entryX=1;entryY=0.5;entryDx=0;entryDy=0;dashed=1;exitX=0.983;exitY=0.319;exitDx=0;exitDy=0;exitPerimeter=0;" parent="1" source="2q1M_JXiHJTiU6n72Lel-11" target="2q1M_JXiHJTiU6n72Lel-12" edge="1">
          <mxGeometry width="50" height="50" relative="1" as="geometry">
            <mxPoint x="390" y="420" as="sourcePoint" />
            <mxPoint x="390.0000000000002" y="340" as="targetPoint" />
            <Array as="points">
              <mxPoint x="410" y="380" />
              <mxPoint x="410" y="310" />
            </Array>
          </mxGeometry>
        </mxCell>
        <mxCell id="2q1M_JXiHJTiU6n72Lel-39" value="&amp;lt;&amp;lt;include&amp;gt;&amp;gt;" style="edgeLabel;html=1;align=center;verticalAlign=middle;resizable=0;points=[];" parent="2q1M_JXiHJTiU6n72Lel-38" vertex="1" connectable="0">
          <mxGeometry x="-0.3874" relative="1" as="geometry">
            <mxPoint x="7" y="-30" as="offset" />
          </mxGeometry>
        </mxCell>
        <mxCell id="2q1M_JXiHJTiU6n72Lel-40" value="" style="endArrow=classic;html=1;rounded=0;entryX=0.566;entryY=1.025;entryDx=0;entryDy=0;dashed=1;exitX=0.541;exitY=0.05;exitDx=0;exitDy=0;exitPerimeter=0;entryPerimeter=0;" parent="1" source="2q1M_JXiHJTiU6n72Lel-22" target="2q1M_JXiHJTiU6n72Lel-16" edge="1">
          <mxGeometry width="50" height="50" relative="1" as="geometry">
            <mxPoint x="490" y="460" as="sourcePoint" />
            <mxPoint x="490" y="380" as="targetPoint" />
            <Array as="points" />
          </mxGeometry>
        </mxCell>
        <mxCell id="2q1M_JXiHJTiU6n72Lel-41" value="&amp;lt;&amp;lt;include&amp;gt;&amp;gt;" style="edgeLabel;html=1;align=center;verticalAlign=middle;resizable=0;points=[];" parent="2q1M_JXiHJTiU6n72Lel-40" vertex="1" connectable="0">
          <mxGeometry x="-0.3874" relative="1" as="geometry">
            <mxPoint x="6" y="-13" as="offset" />
          </mxGeometry>
        </mxCell>
        <mxCell id="2q1M_JXiHJTiU6n72Lel-42" value="Користувач" style="shape=umlActor;verticalLabelPosition=bottom;verticalAlign=top;html=1;outlineConnect=0;" parent="1" vertex="1">
          <mxGeometry x="535" y="70" width="30" height="60" as="geometry" />
        </mxCell>
        <mxCell id="2q1M_JXiHJTiU6n72Lel-45" value="Авторизація" style="ellipse;whiteSpace=wrap;html=1;" parent="1" vertex="1">
          <mxGeometry x="470" y="190" width="160" height="60" as="geometry" />
        </mxCell>
        <mxCell id="2q1M_JXiHJTiU6n72Lel-46" value="" style="endArrow=classic;html=1;rounded=0;entryX=0.5;entryY=0;entryDx=0;entryDy=0;" parent="1" target="2q1M_JXiHJTiU6n72Lel-45" edge="1">
          <mxGeometry width="50" height="50" relative="1" as="geometry">
            <mxPoint x="550" y="150" as="sourcePoint" />
            <mxPoint x="550" y="230" as="targetPoint" />
          </mxGeometry>
        </mxCell>
        <mxCell id="2q1M_JXiHJTiU6n72Lel-53" value="" style="endArrow=classic;html=1;rounded=0;entryX=0;entryY=0.5;entryDx=0;entryDy=0;dashed=1;exitX=1;exitY=0.5;exitDx=0;exitDy=0;" parent="1" source="2q1M_JXiHJTiU6n72Lel-9" target="2q1M_JXiHJTiU6n72Lel-45" edge="1">
          <mxGeometry width="50" height="50" relative="1" as="geometry">
            <mxPoint x="380" y="430" as="sourcePoint" />
            <mxPoint x="380" y="350" as="targetPoint" />
            <Array as="points" />
          </mxGeometry>
        </mxCell>
        <mxCell id="2q1M_JXiHJTiU6n72Lel-54" value="&amp;lt;&amp;lt;include&amp;gt;&amp;gt;" style="edgeLabel;html=1;align=center;verticalAlign=middle;resizable=0;points=[];" parent="2q1M_JXiHJTiU6n72Lel-53" vertex="1" connectable="0">
          <mxGeometry x="-0.3874" relative="1" as="geometry">
            <mxPoint x="6" y="-4" as="offset" />
          </mxGeometry>
        </mxCell>
        <mxCell id="2q1M_JXiHJTiU6n72Lel-57" value="" style="endArrow=classic;html=1;rounded=0;dashed=1;exitX=1;exitY=0.5;exitDx=0;exitDy=0;entryX=0.307;entryY=0.963;entryDx=0;entryDy=0;entryPerimeter=0;" parent="1" source="2q1M_JXiHJTiU6n72Lel-11" target="2q1M_JXiHJTiU6n72Lel-45" edge="1">
          <mxGeometry width="50" height="50" relative="1" as="geometry">
            <mxPoint x="560" y="260" as="sourcePoint" />
            <mxPoint x="520" y="250" as="targetPoint" />
            <Array as="points">
              <mxPoint x="520" y="390" />
            </Array>
          </mxGeometry>
        </mxCell>
        <mxCell id="2q1M_JXiHJTiU6n72Lel-58" value="&amp;lt;&amp;lt;include&amp;gt;&amp;gt;" style="edgeLabel;html=1;align=center;verticalAlign=middle;resizable=0;points=[];" parent="2q1M_JXiHJTiU6n72Lel-57" vertex="1" connectable="0">
          <mxGeometry x="-0.3874" relative="1" as="geometry">
            <mxPoint x="-28" y="4" as="offset" />
          </mxGeometry>
        </mxCell>
        <mxCell id="2q1M_JXiHJTiU6n72Lel-59" value="" style="endArrow=classic;html=1;rounded=0;entryX=0.5;entryY=1;entryDx=0;entryDy=0;dashed=1;exitX=0.5;exitY=0;exitDx=0;exitDy=0;" parent="1" source="2q1M_JXiHJTiU6n72Lel-16" target="2q1M_JXiHJTiU6n72Lel-45" edge="1">
          <mxGeometry width="50" height="50" relative="1" as="geometry">
            <mxPoint x="560" y="260" as="sourcePoint" />
            <mxPoint x="390" y="280" as="targetPoint" />
            <Array as="points">
              <mxPoint x="550" y="450" />
            </Array>
          </mxGeometry>
        </mxCell>
        <mxCell id="2q1M_JXiHJTiU6n72Lel-60" value="&amp;lt;&amp;lt;include&amp;gt;&amp;gt;" style="edgeLabel;html=1;align=center;verticalAlign=middle;resizable=0;points=[];" parent="2q1M_JXiHJTiU6n72Lel-59" vertex="1" connectable="0">
          <mxGeometry x="-0.3874" relative="1" as="geometry">
            <mxPoint x="72" y="-46" as="offset" />
          </mxGeometry>
        </mxCell>
        <mxCell id="8_miNJAVkSmQ69ECpcc8-3" value="" style="endArrow=block;endSize=16;endFill=0;html=1;rounded=0;exitX=0.5;exitY=0;exitDx=0;exitDy=0;exitPerimeter=0;" parent="1" source="2q1M_JXiHJTiU6n72Lel-3" edge="1">
          <mxGeometry width="160" relative="1" as="geometry">
            <mxPoint x="125" y="50" as="sourcePoint" />
            <mxPoint x="530" y="90" as="targetPoint" />
            <Array as="points">
              <mxPoint x="35" y="90" />
            </Array>
          </mxGeometry>
        </mxCell>
        <mxCell id="8_miNJAVkSmQ69ECpcc8-5" value="" style="endArrow=block;endSize=16;endFill=0;html=1;rounded=0;" parent="1" edge="1" source="2q1M_JXiHJTiU6n72Lel-8">
          <mxGeometry width="160" relative="1" as="geometry">
            <mxPoint x="380" y="880" as="sourcePoint" />
            <mxPoint x="570" y="70" as="targetPoint" />
            <Array as="points">
              <mxPoint x="580" y="820" />
              <mxPoint x="680" y="820" />
              <mxPoint x="680" y="440" />
              <mxPoint x="680" y="70" />
            </Array>
          </mxGeometry>
        </mxCell>
        <mxCell id="vmKr8guwN9ohNtvxmBtG-2" value="Перегляд інформації про безпеку праці" style="ellipse;whiteSpace=wrap;html=1;" vertex="1" parent="1">
          <mxGeometry x="210" y="500" width="140" height="60" as="geometry" />
        </mxCell>
        <mxCell id="vmKr8guwN9ohNtvxmBtG-4" value="" style="endArrow=classic;html=1;rounded=0;exitX=1;exitY=0.3333333333333333;exitDx=0;exitDy=0;exitPerimeter=0;entryX=0;entryY=0.5;entryDx=0;entryDy=0;" edge="1" parent="1" source="2q1M_JXiHJTiU6n72Lel-3" target="vmKr8guwN9ohNtvxmBtG-2">
          <mxGeometry width="50" height="50" relative="1" as="geometry">
            <mxPoint x="290" y="540" as="sourcePoint" />
            <mxPoint x="340" y="490" as="targetPoint" />
          </mxGeometry>
        </mxCell>
        <mxCell id="vmKr8guwN9ohNtvxmBtG-5" value="" style="endArrow=classic;html=1;rounded=0;dashed=1;entryX=0.408;entryY=1.01;entryDx=0;entryDy=0;entryPerimeter=0;exitX=1;exitY=0.5;exitDx=0;exitDy=0;" edge="1" parent="1" source="2q1M_JXiHJTiU6n72Lel-14" target="2q1M_JXiHJTiU6n72Lel-45">
          <mxGeometry width="50" height="50" relative="1" as="geometry">
            <mxPoint x="360" y="461" as="sourcePoint" />
            <mxPoint x="519" y="319" as="targetPoint" />
            <Array as="points">
              <mxPoint x="535" y="420" />
            </Array>
          </mxGeometry>
        </mxCell>
        <mxCell id="vmKr8guwN9ohNtvxmBtG-6" value="&amp;lt;&amp;lt;include&amp;gt;&amp;gt;" style="edgeLabel;html=1;align=center;verticalAlign=middle;resizable=0;points=[];" vertex="1" connectable="0" parent="vmKr8guwN9ohNtvxmBtG-5">
          <mxGeometry x="-0.3874" relative="1" as="geometry">
            <mxPoint x="-28" y="4" as="offset" />
          </mxGeometry>
        </mxCell>
      </root>
    </mxGraphModel>
  </diagram>
</mxfile>
